<svg width="1041" height="160" viewBox="0 0 1041 160" fill="none" xmlns="http://www.w3.org/2000/svg">
<path d="M106.934 90.0352C108.789 93.9414 109.717 97.8965 109.717 101.9C109.717 105.807 108.74 109.713 106.787 113.619C104.834 117.428 101.66 120.846 97.2656 123.873C92.8711 126.803 87.2559 128.268 80.4199 128.268H79.541C78.9551 128.365 78.3691 128.414 77.7832 128.414H18.8965C16.2598 128.316 14.0137 127.389 12.1582 125.631C10.4004 123.775 9.47266 121.529 9.375 118.893V51.8027C9.47266 49.166 10.4004 46.9688 12.1582 45.2109C14.0137 43.3555 16.2598 42.3789 18.8965 42.2812H69.2871C69.873 42.2812 70.459 42.3301 71.0449 42.4277H71.9238C78.7598 42.623 84.375 44.1855 88.7695 47.1152C93.1641 50.0449 96.3379 53.4141 98.291 57.2227C100.244 60.9336 101.221 64.6934 101.221 68.502C101.221 72.4082 100.293 76.2168 98.4375 79.9277C98.3398 80.123 98.2422 80.2695 98.1445 80.3672C102.148 83.1992 105.078 86.4219 106.934 90.0352ZM81.2988 108.785C83.1543 108.883 84.668 108.541 85.8398 107.76C87.1094 106.979 88.0371 106.1 88.623 105.123C89.209 104.049 89.502 102.975 89.502 101.9C89.502 101.217 89.209 100.289 88.623 99.1172C88.0371 97.8477 87.1094 96.8223 85.8398 96.041C84.668 95.2598 83.1543 94.8203 81.2988 94.7227H71.9238H29.1504V104.83C29.1504 107.467 30.5176 108.785 33.252 108.785H34.4238H81.2988ZM77.4902 73.7754C78.6621 73.0918 79.541 72.3105 80.127 71.4316C80.7129 70.4551 81.0059 69.4785 81.0059 68.502C81.0059 67.5254 80.7129 66.5977 80.127 65.7188C79.541 64.7422 78.6133 63.9121 77.3438 63.2285C76.1719 62.4473 74.6582 62.0078 72.8027 61.9102H33.252C30.5176 61.9102 29.1504 63.2285 29.1504 65.8652V75.0938H72.8027C74.6582 74.9961 76.2207 74.5566 77.4902 73.7754ZM134.912 39.9375C137.549 40.0352 139.795 41.0117 141.65 42.8672C143.506 44.625 144.482 46.8223 144.58 49.459V121.236C143.994 127.096 140.771 130.27 134.912 130.758C132.178 130.758 129.785 129.879 127.734 128.121C125.781 126.266 124.805 123.971 124.805 121.236V49.459C124.902 46.7246 125.928 44.4785 127.881 42.7207C129.834 40.8652 132.178 39.9375 134.912 39.9375ZM209.912 131.197C204.834 131.197 199.805 130.611 194.824 129.439C189.941 128.268 185.254 126.559 180.762 124.312C176.27 121.969 172.314 118.893 168.896 115.084C165.479 111.275 163.623 106.734 163.33 101.461V95.3086V70.2598C163.33 67.5254 164.307 65.2793 166.26 63.5215C168.311 61.666 170.703 60.7383 173.438 60.7383C179.297 61.2266 182.471 64.4004 182.959 70.2598V76.7051V96.9199C183.154 99.9473 184.277 102.486 186.328 104.537C188.477 106.49 190.82 108.053 193.359 109.225C195.996 110.396 198.682 111.275 201.416 111.861C204.248 112.447 207.08 112.74 209.912 112.74C212.744 112.74 215.527 112.447 218.262 111.861C221.094 111.275 223.779 110.396 226.318 109.225C228.955 108.053 231.299 106.49 233.35 104.537C235.498 102.486 236.67 99.9473 236.865 96.9199V76.7051V70.2598C236.865 67.5254 237.842 65.2793 239.795 63.5215C241.846 61.666 244.238 60.7383 246.973 60.7383C252.832 61.2266 256.055 64.4004 256.641 70.2598V95.3086V101.461C256.348 106.734 254.443 111.275 250.928 115.084C247.51 118.893 243.555 121.969 239.062 124.312C234.57 126.559 229.834 128.268 224.854 129.439C219.971 130.611 214.99 131.197 209.912 131.197ZM305.42 128.707C296.826 128.414 290.332 126.412 285.938 122.701C281.543 118.893 278.369 114.645 276.416 109.957C274.463 105.172 273.486 100.338 273.486 95.4551C273.486 90.377 274.414 85.4941 276.27 80.8066C278.223 76.0215 281.396 71.7734 285.791 68.0625C290.283 64.2539 295.947 62.3008 302.783 62.2031H358.447C361.182 62.2031 363.477 63.1309 365.332 64.9863C367.285 66.7441 368.262 68.8926 368.262 71.4316C368.262 74.0684 367.285 76.3145 365.332 78.1699C363.477 79.9277 361.182 80.8066 358.447 80.8066H303.662C301.514 80.8066 299.609 81.5391 297.949 83.0039C296.387 84.4688 295.215 86.373 294.434 88.7168C293.75 91.0605 293.408 93.3555 293.408 95.6016C293.408 98.043 293.75 100.436 294.434 102.779C295.215 105.123 296.387 107.027 297.949 108.492C299.609 109.859 301.514 110.592 303.662 110.689H358.447C361.182 110.689 363.477 111.568 365.332 113.326C367.285 115.084 368.262 117.184 368.262 119.625C368.262 122.164 367.285 124.312 365.332 126.07C363.477 127.828 361.182 128.707 358.447 128.707H305.42ZM366.504 95.1621C366.504 97.0176 365.674 98.6289 364.014 99.9961C362.549 101.266 360.693 101.9 358.447 101.9H310.547C308.301 101.9 306.396 101.266 304.834 99.9961C303.271 98.6289 302.49 97.0176 302.49 95.1621C302.49 93.4043 303.271 91.8418 304.834 90.4746C306.396 89.2051 308.301 88.5703 310.547 88.5703H358.447C360.693 88.5703 362.598 89.2539 364.16 90.6211C365.723 91.8906 366.504 93.4043 366.504 95.1621ZM470.215 39.9375C472.852 40.0352 475.098 41.0117 476.953 42.8672C478.809 44.625 479.785 46.8223 479.883 49.459V121.236C479.297 127.096 476.074 130.27 470.215 130.758C467.48 130.758 465.088 129.879 463.037 128.121C461.084 126.266 460.107 123.971 460.107 121.236V49.459C460.205 46.7246 461.23 44.4785 463.184 42.7207C465.137 40.8652 467.48 39.9375 470.215 39.9375ZM495.264 65.7188C501.807 61.3242 510.645 56.8809 521.777 52.3887L545.801 42.1348C546.875 41.6465 548.047 41.3535 549.316 41.2559C552.051 41.0605 554.395 41.8906 556.348 43.7461C558.301 45.5039 559.277 47.7988 559.277 50.6309C559.277 53.8535 558.594 56.2461 557.227 57.8086C555.957 59.2734 554.297 60.4941 552.246 61.4707L531.738 69.2344C527.734 70.7969 523.926 72.3594 520.312 73.9219C516.797 75.3867 513.574 77.0957 510.645 79.0488C507.715 80.8066 506.152 82.8086 505.957 85.0547C506.152 87.2031 507.715 89.2051 510.645 91.0605C513.574 93.0137 516.797 94.7715 520.312 96.334C523.926 97.7988 527.734 99.3125 531.738 100.875L554.59 109.225C556.641 110.201 558.301 111.471 559.57 113.033C560.938 114.498 561.621 116.842 561.621 120.064C561.621 122.896 560.645 125.24 558.691 127.096C556.738 128.854 554.395 129.635 551.66 129.439C550.391 129.342 549.219 129.049 548.145 128.561L521.777 117.721C510.645 113.229 501.758 108.785 495.117 104.391C488.574 99.8984 485.254 93.4531 485.156 85.0547C485.254 76.6562 488.623 70.2109 495.264 65.7188ZM658.301 120.943V85.6406C658.301 83.1992 657.031 81.9297 654.492 81.832H603.223C601.367 81.9297 599.756 82.7598 598.389 84.3223C597.021 85.7871 595.996 87.5449 595.312 89.5957C594.727 91.5488 594.434 93.5508 594.434 95.6016C594.434 97.5547 594.727 99.5566 595.312 101.607C595.996 103.561 597.021 105.318 598.389 106.881C599.756 108.346 601.367 109.078 603.223 109.078H640.723C643.457 109.078 645.752 110.055 647.607 112.008C649.561 113.863 650.537 116.158 650.537 118.893C650.537 121.627 649.561 123.922 647.607 125.777C645.752 127.73 643.457 128.707 640.723 128.707H603.809C596.973 128.609 591.309 126.705 586.816 122.994C582.422 119.186 579.248 114.938 577.295 110.25C575.439 105.465 574.512 100.533 574.512 95.4551C574.512 90.5723 575.488 85.7871 577.441 81.0996C579.395 76.3145 582.568 72.0664 586.963 68.3555C591.357 64.5469 597.852 62.4961 606.445 62.2031H667.969C670.703 62.2031 673.047 63.1309 675 64.9863C676.953 66.7441 677.979 68.9902 678.076 71.7246V120.943C678.076 123.678 677.051 125.973 675 127.828C673.047 129.586 670.703 130.465 667.969 130.465C662.109 129.977 658.887 126.803 658.301 120.943ZM700.049 80.6602C701.904 75.9727 705.029 71.7734 709.424 68.0625C713.916 64.2539 719.58 62.3008 726.416 62.2031H781.494C784.229 62.2031 786.523 63.1797 788.379 65.1328C790.332 66.9883 791.309 69.2832 791.309 72.0176C791.309 74.752 790.332 77.0957 788.379 79.0488C786.523 80.9043 784.229 81.832 781.494 81.832H725.83C723.975 81.832 722.363 82.6133 720.996 84.1758C719.629 85.6406 718.555 87.3984 717.773 89.4492C717.09 91.5 716.748 93.4531 716.748 95.3086V120.943C716.162 126.803 712.939 129.977 707.08 130.465C704.346 130.465 701.953 129.586 699.902 127.828C697.949 125.973 696.973 123.678 696.973 120.943V95.4551H697.119C697.119 90.377 698.096 85.4453 700.049 80.6602ZM836.865 60.0059C840.283 60.0059 843.604 60.5918 846.826 61.7637C850.146 62.9355 853.32 64.6445 856.348 66.8906C856.836 67.3789 857.373 67.8672 857.959 68.3555C858.447 67.8672 858.984 67.3789 859.57 66.8906C862.598 64.6445 865.723 62.9355 868.945 61.7637C872.266 60.5918 875.586 60.0059 878.906 60.0059C882.324 60.0059 885.645 60.5918 888.867 61.7637C892.188 62.9355 895.312 64.6934 898.242 67.0371C901.27 69.2832 903.906 72.3105 906.152 76.1191C908.496 79.9277 909.668 84.4688 909.668 89.7422V120.943C909.082 126.803 905.859 129.977 900 130.465C897.266 130.465 894.873 129.586 892.822 127.828C890.869 125.973 889.893 123.678 889.893 120.943V90.9141C889.893 88.5703 889.453 86.6172 888.574 85.0547C887.695 83.3945 886.719 82.125 885.645 81.2461C884.57 80.2695 883.447 79.5859 882.275 79.1953C881.104 78.707 879.932 78.4629 878.76 78.4629C877.588 78.4629 876.416 78.707 875.244 79.1953C874.17 79.5859 873.096 80.2695 872.021 81.2461C870.947 82.125 869.971 83.3945 869.092 85.0547C868.213 86.6172 867.725 88.5703 867.627 90.9141V120.943C867.041 126.803 863.818 129.977 857.959 130.465C855.225 130.465 852.832 129.586 850.781 127.828C848.828 125.973 847.852 123.678 847.852 120.943V90.9141C847.852 88.5703 847.412 86.6172 846.533 85.0547C845.654 83.3945 844.678 82.125 843.604 81.2461C842.529 80.2695 841.406 79.5859 840.234 79.1953C839.062 78.707 837.891 78.4629 836.719 78.4629C835.547 78.4629 834.375 78.707 833.203 79.1953C832.129 79.5859 831.055 80.2695 829.98 81.2461C828.906 82.125 827.93 83.3945 827.051 85.0547C826.172 86.6172 825.684 88.5703 825.586 90.9141V120.943C825.098 126.803 821.924 129.977 816.064 130.465C813.33 130.465 810.938 129.586 808.887 127.828C806.934 125.973 805.957 123.678 805.957 120.943V89.7422C806.152 84.4688 807.373 79.9277 809.619 76.1191C811.865 72.3105 814.502 69.2832 817.529 67.0371C820.557 64.6934 823.682 62.9355 826.904 61.7637C830.225 60.5918 833.545 60.0059 836.865 60.0059ZM1009.72 120.943V85.6406C1009.72 83.1992 1008.45 81.9297 1005.91 81.832H954.639C952.783 81.9297 951.172 82.7598 949.805 84.3223C948.438 85.7871 947.412 87.5449 946.729 89.5957C946.143 91.5488 945.85 93.5508 945.85 95.6016C945.85 97.5547 946.143 99.5566 946.729 101.607C947.412 103.561 948.438 105.318 949.805 106.881C951.172 108.346 952.783 109.078 954.639 109.078H992.139C994.873 109.078 997.168 110.055 999.023 112.008C1000.98 113.863 1001.95 116.158 1001.95 118.893C1001.95 121.627 1000.98 123.922 999.023 125.777C997.168 127.73 994.873 128.707 992.139 128.707H955.225C948.389 128.609 942.725 126.705 938.232 122.994C933.838 119.186 930.664 114.938 928.711 110.25C926.855 105.465 925.928 100.533 925.928 95.4551C925.928 90.5723 926.904 85.7871 928.857 81.0996C930.811 76.3145 933.984 72.0664 938.379 68.3555C942.773 64.5469 949.268 62.4961 957.861 62.2031H1019.38C1022.12 62.2031 1024.46 63.1309 1026.42 64.9863C1028.37 66.7441 1029.39 68.9902 1029.49 71.7246V120.943C1029.49 123.678 1028.47 125.973 1026.42 127.828C1024.46 129.586 1022.12 130.465 1019.38 130.465C1013.53 129.977 1010.3 126.803 1009.72 120.943Z" fill="#292A32"/>
</svg>
