<svg xmlns="http://www.w3.org/2000/svg" viewBox="0 0 360 360"><defs><style>.cls-1{fill:#29abe2;}.cls-1,.cls-2,.cls-7{stroke:#ffffe8;}.cls-1,.cls-2,.cls-5,.cls-7,.cls-8{stroke-miterlimit:10;}.cls-2,.cls-7,.cls-8{fill:none;}.cls-3,.cls-4{font-size:30px;font-family:Hopeitissed, Hopeitissed;}.cls-4,.cls-5,.cls-6{fill:#ffffe8;}.cls-5,.cls-8{stroke:#000;}.cls-5,.cls-7{stroke-width:0.5px;}.cls-8{stroke-width:3px;}</style></defs><title>Blue Karma Logo</title><g id="Layer_4" data-name="Layer 4"><rect class="cls-1" x="87.21" y="74.33" width="187.73" height="180"/><circle cx="181.08" cy="164.58" r="53"/><circle class="cls-2" cx="181.08" cy="164.58" r="37.48"/><circle class="cls-2" cx="181.08" cy="164.58" r="41.27"/><circle class="cls-2" cx="181.08" cy="164.58" r="49.08"/><circle class="cls-2" cx="181.08" cy="164.58" r="45.29"/><path d="M176.26,109.39,120.05,190a6.23,6.23,0,0,0,5.11,9.79H237.58a6.23,6.23,0,0,0,5.11-9.79l-56.21-80.62A6.23,6.23,0,0,0,176.26,109.39Z"/><path d="M168.22,136.29c0-.67,1.72-.66,4.57-2.37A34.89,34.89,0,0,0,177,131,6.51,6.51,0,0,1,178.6,130a6.37,6.37,0,0,1,2.5-.5,7.19,7.19,0,0,1,2.31.31,7.49,7.49,0,0,1,2.13,1.13,46,46,0,0,0,4.12,2.62c2.62,1.4,4.2,1.23,4.27,2,0,.49-.65.61-2.87,2.54-.88.77-1.51,1.39-1.9,1.79-.83.86-.94,1.08-1.37,1.52a9.54,9.54,0,0,1-5.32,2.63,7.63,7.63,0,0,1-2.5-.06,8.8,8.8,0,0,1-4.18-2.25c-.69-.63-.73-.86-1.63-1.63a15.29,15.29,0,0,0-2-1.44C169.4,136.89,168.24,136.85,168.22,136.29Z"/><text class="cls-3" transform="translate(147.79 169.33)">Blue <tspan x="-15.19" y="23">Karma</tspan></text><text class="cls-4" transform="translate(149.79 169.33)">Blue <tspan x="-15.19" y="23">Karma</tspan></text><circle class="cls-5" cx="181.37" cy="136.62" r="7.13"/><circle cx="181.37" cy="136.62" r="4.17"/><circle class="cls-6" cx="182.96" cy="134.47" r="1.38"/><path d="M174.16,134.1c.24.31,1.39-.82,4.09-1.43a14.73,14.73,0,0,1,5.68-.13c3.26.58,4.91,2.07,5.23,1.66s-1.1-2.33-2.94-3.6a8.38,8.38,0,0,0-6.43-1.62C176,129.78,173.76,133.59,174.16,134.1Z"/><line class="cls-7" x1="181.37" y1="126.08" x2="181.37" y2="118.5"/><line class="cls-7" x1="184.07" y1="126.73" x2="185.95" y2="120.69"/><line class="cls-7" x1="178.16" y1="126.78" x2="176.28" y2="120.91"/><line class="cls-7" x1="174.99" y1="128.09" x2="173.49" y2="125.48"/><line class="cls-7" x1="172.43" y1="131.28" x2="169.85" y2="126.82"/><line class="cls-7" x1="169.58" y1="133.25" x2="168.22" y2="131.49"/><line class="cls-7" x1="186.56" y1="128" x2="188.33" y2="125"/><line class="cls-7" x1="189.49" y1="130.06" x2="191.99" y2="126.52"/><line class="cls-7" x1="191.93" y1="132.1" x2="193.27" y2="130.54"/><path class="cls-2" d="M177.62,111.83l-54.8,78.59a4.58,4.58,0,0,0,3.76,7.19H236.16a4.58,4.58,0,0,0,3.76-7.19l-54.8-78.59A4.57,4.57,0,0,0,177.62,111.83Z"/><path class="cls-7" d="M189.66,133.72l-1-.56a10.52,10.52,0,0,0-2.48-2.38,8.38,8.38,0,0,0-6.43-1.63,8.52,8.52,0,0,0-5.23,3.81c-.51.35-1.1.72-1.77,1.13-2.85,1.72-4.58,1.7-4.57,2.38s1.18.6,3.94,2.31a13.63,13.63,0,0,1,2,1.44c.9.76.94,1,1.63,1.62a8.8,8.8,0,0,0,4.18,2.25,7.63,7.63,0,0,0,2.5.06,9.57,9.57,0,0,0,5.32-2.62c.43-.45.54-.67,1.37-1.52.39-.41,1-1,1.9-1.79,2.22-1.94,2.92-2.06,2.87-2.55C193.86,134.94,192.28,135.11,189.66,133.72Z"/><rect class="cls-8" x="92.04" y="78.95" width="178.08" height="170.75"/><rect class="cls-2" x="96.6" y="83.33" width="168.96" height="162"/></g></svg>