<svg xmlns="http://www.w3.org/2000/svg" viewBox="0 0 360 360"><defs><style>.cls-1{fill:#29abe2;stroke-width:4px;}.cls-1,.cls-4{stroke:#000;}.cls-1,.cls-4,.cls-6{stroke-miterlimit:10;}.cls-2,.cls-3{font-size:30px;font-family:Hopeitissed, Hopeitissed;}.cls-3,.cls-4,.cls-5{fill:#ffffe8;}.cls-4,.cls-6{stroke-width:0.5px;}.cls-6{fill:none;stroke:#ffffe8;}</style></defs><title>Blue Karma Logo</title><g id="Layer_3" data-name="Layer 3"><path class="cls-1" d="M168.7,115.48c-6.14,7.25-9.21,10.87-9.35,11.1-4.55,7.92-2,9.36-6,15.67-3.42,5.47-5.82,5.21-10.33,10.83-5.48,6.83-3.23,8.81-8,16.5C129,179.33,118.61,187,116,193.69c-.39,1-1.29,3.3-.27,5.22a5,5,0,0,0,4.47,2.69h105.5a5,5,0,0,0,4.48-2.69c1-1.8.26-3.87-.28-5.22-3-7.42-9.24-12.92-13.83-20.11-4.87-7.62-2.73-9.15-7.83-15.67-4.81-6.13-6.62-4.66-11-10.16-5.27-6.61-3.06-9.22-10.17-21.5,0,0-2-3.52-7.83-9.67-2.53-2.68-4.29-4.18-6.34-4C171.06,112.74,169.84,114.13,168.7,115.48Z"/><path d="M160.46,140.78c0-.67,1.72-.66,4.57-2.37a34.89,34.89,0,0,0,4.18-2.88,6.51,6.51,0,0,1,1.63-1.06,6.34,6.34,0,0,1,2.5-.5,7.19,7.19,0,0,1,2.31.31,7.49,7.49,0,0,1,2.13,1.13A46,46,0,0,0,181.9,138c2.62,1.4,4.2,1.23,4.27,2,.05.49-.65.61-2.87,2.54-.88.77-1.51,1.39-1.9,1.79-.83.86-.94,1.08-1.37,1.52a9.54,9.54,0,0,1-5.32,2.63,7.63,7.63,0,0,1-2.5-.06,8.8,8.8,0,0,1-4.18-2.25c-.69-.63-.73-.86-1.63-1.63a15.29,15.29,0,0,0-2-1.44C161.64,141.38,160.48,141.34,160.46,140.78Z"/><text class="cls-2" transform="translate(140.43 173.46)">Blue <tspan x="-15.19" y="23">Karma</tspan></text><text class="cls-3" transform="translate(142.43 173.46)">Blue <tspan x="-15.19" y="23">Karma</tspan></text><circle class="cls-4" cx="173.61" cy="141.11" r="7.13"/><circle cx="173.61" cy="141.11" r="4.3"/><circle class="cls-5" cx="175.25" cy="138.9" r="1.43"/><path d="M166.4,138.59c.24.31,1.39-.82,4.09-1.43a14.73,14.73,0,0,1,5.68-.13c3.26.58,4.91,2.07,5.23,1.66s-1.1-2.33-2.94-3.6a8.4,8.4,0,0,0-6.43-1.62C168.25,134.27,166,138.08,166.4,138.59Z"/><line class="cls-6" x1="173.61" y1="131.57" x2="173.61" y2="123.99"/><line class="cls-6" x1="176.31" y1="132.22" x2="178.19" y2="126.18"/><line class="cls-6" x1="170.4" y1="132.27" x2="168.52" y2="126.4"/><line class="cls-6" x1="167.23" y1="133.58" x2="165.73" y2="130.97"/><line class="cls-6" x1="164.67" y1="136.77" x2="162.09" y2="132.31"/><line class="cls-6" x1="161.82" y1="138.74" x2="160.46" y2="136.98"/><line class="cls-6" x1="178.8" y1="133.49" x2="180.57" y2="130.49"/><line class="cls-6" x1="181.73" y1="135.55" x2="184.23" y2="132.01"/><line class="cls-6" x1="184.17" y1="137.59" x2="185.51" y2="136.03"/></g></svg>